<?xml version="1.0" encoding="UTF-8" standalone="no"?>
<svg
   id="svg8"
   version="1.1"
   viewBox="0 0 450.81715 137.81299"
   height="137.81299mm"
   width="450.81717mm"
   xmlns="http://www.w3.org/2000/svg"
   xmlns:svg="http://www.w3.org/2000/svg"
   xmlns:rdf="http://www.w3.org/1999/02/22-rdf-syntax-ns#"
   xmlns:cc="http://creativecommons.org/ns#"
   xmlns:dc="http://purl.org/dc/elements/1.1/">
  <defs
     id="defs2" />
  <metadata
     id="metadata5">
    <rdf:RDF>
      <cc:Work
         rdf:about="">
        <dc:format>image/svg+xml</dc:format>
        <dc:type
           rdf:resource="http://purl.org/dc/dcmitype/StillImage" />
      </cc:Work>
    </rdf:RDF>
  </metadata>
  <g
     id="layer1"
     transform="translate(-32.073322,-30.661957)">
    <rect
       style="fill:#f8f9fa;fill-opacity:1;stroke-width:2.75254"
       id="rect1"
       width="133.75334"
       height="137.81299"
       x="32.073322"
       y="30.661957" />
    <g
       id="g207"
       transform="translate(41.791085,18.424027)">
      <g
         transform="matrix(2.8657328,0,0,2.8657328,-134.34992,-122.40315)"
         style="font-style:normal;font-weight:normal;font-size:25.4px;line-height:1.25;font-family:sans-serif;fill:#004080;fill-opacity:1;stroke:none;stroke-width:0.264583"
         id="text12"
         aria-label="M">
        <path
           id="path865"
           style="font-style:normal;font-variant:normal;font-weight:bold;font-stretch:normal;font-size:25.4px;font-family:'Bodoni 72 Oldstyle';-inkscape-font-specification:'Bodoni 72 Oldstyle Bold';fill:#004080;fill-opacity:1;stroke-width:0.264583"
           d="m 72.239889,71.961497 q 0,0.254 -0.508,0.254 h -0.1778 q -0.5588,0 -1.9812,-0.0254 -1.397,-0.0254 -2.0828,-0.0254 -0.2794,0 -1.1684,0.0254 -0.8636,0 -2.3368,0 h -0.635 q -0.3556,0 -0.3556,-0.2286 0,-0.2286 0.3556,-0.2286 l 0.8636,0.0254 q 1.1684,0.0254 1.4224,-0.4064 0.0762,-0.127 0.0762,-1.523999 l -0.0254,-13.7668 q -0.8128,2.1082 -2.1336,6.7056 l -2.2098,7.7724 q -0.4064,1.422399 -0.6604,1.422399 -0.2794,0 -0.508,-0.7112 -0.0762,-0.228599 -1.6256,-4.876799 -0.5842,-1.7526 -3.175,-9.8298 v 13.1318 q 0,1.143 0.0254,1.3716 0.0254,0.203199 0.2286,0.355599 0.381,0.3302 1.2954,0.3048 0.9144,-0.0254 0.9144,0.2794 0,0.1778 -0.381,0.1778 l -2.2606,-0.0508 q -0.5842,-0.0254 -1.3462,0.0254 -1.016,0.0508 -1.3716,0.0508 -0.5334,0 -0.5334,-0.2286 0,-0.2032 0.4318,-0.2032 1.016,0 1.2192,-0.0254 0.7874,-0.1016 0.9144,-0.584199 0.0762,-0.3048 0.0762,-1.27 v -12.1158 q 0,-2.032 -0.254,-2.3622 -0.2286,-0.3556 -1.8034,-0.3556 -0.4064,0 -0.4064,-0.2286 0,-0.254 0.4318,-0.2286 l 0.6858,0.0254 4.8006,-0.0254 q 0.0762,0 0.2794,0.0254 2.159,7.0358 3.6576,11.684 l 3.429,-11.7094 h 0.5334 l 3.3528,0.0254 q 0.0762,0 0.4318,0 0.381,-0.0254 0.6858,-0.0254 h 1.1684 q 0.508,0 0.508,0.2286 0,0.254 -0.3048,0.2286 l -0.5842,-0.0254 q -1.0668,-0.0508 -1.4478,0.2032 -0.3556,0.254 -0.3556,0.9906 0,0.2032 0.0254,0.889 0.0254,0.6858 0.0254,6.3754 v 7.0866 q 0,0.914399 0.4572,1.066799 0.4826,0.127 1.397,0.1016 0.9398,-0.0254 0.9398,0.2286 z" />
      </g>
      <g
         transform="matrix(2.8657328,0,0,2.8657328,-134.34992,-122.40315)"
         style="font-style:normal;font-weight:normal;font-size:25.4px;line-height:1.25;font-family:sans-serif;fill:#004080;fill-opacity:1;stroke:none;stroke-width:0.264583"
         id="text20"
         aria-label="H">
        <path
           id="path868"
           style="font-style:normal;font-variant:normal;font-weight:bold;font-stretch:normal;font-size:25.4px;font-family:'Bodoni 72 Oldstyle';-inkscape-font-specification:'Bodoni 72 Oldstyle Bold';fill:#004080;fill-opacity:1;stroke-width:0.264583"
           d="m 81.806708,89.293953 q 0,0.1524 -0.2286,0.1524 -0.1778,0 -0.3302,-0.0254 -0.889,-0.1524 -4.9784,-0.1524 -0.381,0 -1.1684,0.0254 l -0.7874,0.0254 q -0.7874,0.0254 -0.7874,-0.2032 0,-0.2032 0.635,-0.2286 0.5588,-0.0254 0.9652,-0.2032 0.4318,-0.2032 0.4318,-0.4572 0.0254,-0.1524 0.0508,-0.8382 l 0.0254,-1.27 v -5.8928 l -5.2324,0.0254 q -0.4572,0 -0.889,-0.0254 l 0.0508,7.8486 q 0.0254,0.6604 1.016,0.7874 0.7874,0.1016 0.9144,0.1524 0.127,0.0254 0.127,0.1524 0,0.1524 -0.254,0.1524 -0.3302,0 -1.7526,-0.0508 -1.4224,-0.0508 -1.1938,-0.0508 -0.1524,0 -1.5748,0.0762 -1.397,0.0508 -2.667,0.0508 h -0.254 q -0.4572,0 -0.4572,-0.2286 0,-0.2032 0.3556,-0.2032 1.1938,0 1.651,-0.3048 0.2032,-0.127 0.2032,-1.3462 v -14.0208 q 0,-0.8128 -0.4318,-0.9652 -0.4318,-0.1778 -1.397,-0.1778 -0.3302,0 -0.3302,-0.2032 0,-0.127 0.2794,-0.1524 -0.1016,0 1.905,0.0254 l 3.1496,0.0254 q 0.9652,0 1.9304,-0.0508 0.4318,-0.0254 0.508,-0.0254 0.3556,0 0.3556,0.254 0,0.1778 -0.1524,0.2286 -0.127,0.0254 -0.889,0.0508 -0.7366,0.0254 -0.9144,0.3302 -0.1778,0.2794 -0.1778,1.0414 v 5.9944 l 0.6096,0.0254 q 2.54,0.1016 5.5118,-0.0508 v -5.6642 q 0,-1.7272 -1.2954,-1.7272 -0.8636,0 -0.8636,-0.254 0,-0.2286 0.3302,-0.2286 h 0.254 q 0.4064,0 1.4224,0.0508 1.0414,0.0254 2.2606,0.0254 h 1.9304 l 1.8796,-0.0762 q 0.254,0 0.254,0.1524 0,0.1778 -0.9398,0.254 -0.9398,0.0762 -1.1684,0.4064 -0.2286,0.3048 -0.2286,1.5748 v 12.4968 q 0,1.651 0.4064,2.0066 0.4318,0.3302 1.4478,0.381 0.4826,0.0254 0.4826,0.3048 z" />
      </g>
    </g>
    <text
       xml:space="preserve"
       style="font-style:normal;font-variant:normal;font-weight:normal;font-stretch:normal;font-size:50.8px;font-family:'Liberation Serif';-inkscape-font-specification:'Liberation Serif, Normal';font-variant-ligatures:normal;font-variant-caps:normal;font-variant-numeric:normal;font-variant-east-asian:normal;text-align:center;text-anchor:middle;fill:#004080;fill-opacity:1;stroke-width:2.794"
       x="333.28928"
       y="85.674309"
       id="text2"><tspan
         id="tspan2"
         style="fill:#004080;fill-opacity:1;stroke-width:2.794"
         x="333.28928"
         y="85.674309">Matt Hoffman</tspan></text>
    <text
       xml:space="preserve"
       style="font-style:normal;font-variant:normal;font-weight:normal;font-stretch:normal;font-size:42.8126px;font-family:'Liberation Serif';-inkscape-font-specification:'Liberation Serif, Normal';font-variant-ligatures:normal;font-variant-caps:normal;font-variant-numeric:normal;font-variant-east-asian:normal;text-align:center;text-anchor:middle;fill:#004080;fill-opacity:1;stroke-width:2.3547"
       x="298.02664"
       y="119.95876"
       id="text3"><tspan
         id="tspan3"
         style="font-style:normal;font-variant:normal;font-weight:normal;font-stretch:normal;font-size:42.8126px;font-family:'Liberation Serif';-inkscape-font-specification:'Liberation Serif, Normal';font-variant-ligatures:normal;font-variant-caps:normal;font-variant-numeric:normal;font-variant-east-asian:normal;stroke-width:2.3547"
         x="298.02664"
         y="119.95876">Photography</tspan></text>
    <text
       xml:space="preserve"
       style="font-style:normal;font-variant:normal;font-weight:normal;font-stretch:normal;font-size:22.5778px;font-family:'Liberation Serif';-inkscape-font-specification:'Liberation Serif, Normal';font-variant-ligatures:normal;font-variant-caps:normal;font-variant-numeric:normal;font-variant-east-asian:normal;text-align:center;text-anchor:middle;fill:#999999;fill-opacity:1;stroke-width:2.794"
       x="336.34424"
       y="151.05507"
       id="text4"><tspan
         id="tspan4"
         style="font-style:normal;font-variant:normal;font-weight:normal;font-stretch:normal;font-size:22.5778px;font-family:'Liberation Serif';-inkscape-font-specification:'Liberation Serif, Normal';font-variant-ligatures:normal;font-variant-caps:normal;font-variant-numeric:normal;font-variant-east-asian:normal;stroke-width:2.794"
         x="336.34424"
         y="151.05507">Beautiful Images for Real Estate</tspan></text>
  </g>
</svg>
